Coordinates
version=1
nRows=21
nColumns=28
inDegrees=yes

Units are S.I. units (second, meters, Newtons, ...)
Angles are in degrees.

endheader
time	pelvis_tilt	pelvis_list	pelvis_rotation	pelvis_tx	pelvis_ty	pelvis_tz	hip_flexion_r	hip_adduction_r	hip_rotation_r	knee_angle_r	ankle_angle_r	subtalar_angle_r	mtp_angle_r	hip_flexion_l	hip_adduction_l	hip_rotation_l	knee_angle_l	socket_flexion	socket_adduction	socket_rotation	socket_tx	socket_ty	socket_tz	foot_flex	lumbar_extension	lumbar_bending	lumbar_rotation
      0.64583333	     -4.59779697	     -1.59952018	      7.08970027	     -0.05769210	      0.97362761	      0.27275411	     31.77006944	      3.84990735	      2.27935537	     -8.43501436	     16.84336138	    -24.79993149	     -6.95312405	    -16.93866077	     -1.10066946	     18.18000922	     -4.02664647	      0.00000000	      0.00000000	      0.00000000	      0.00000000	     -0.00317108	      0.00000000	      9.80082190	     -7.06793138	     -0.33992313	     -2.61964577
      0.65000000	     -4.53054521	     -1.66487714	      7.24115101	     -0.05143104	      0.97272380	      0.27231890	     31.81849394	      3.98157780	      2.52463286	     -9.07766835	     16.74052893	    -24.86774465	     -6.90199099	    -17.25546030	     -1.20995398	     18.31236237	     -4.25897790	      0.00000000	      0.00000000	      0.00000000	      0.00000000	     -0.00306764	      0.00000000	      9.82081562	     -7.08670027	     -0.12824001	     -2.64491846
      0.65416667	     -4.40310028	     -1.72511465	      7.29841351	     -0.04513169	      0.97180224	      0.27207135	     31.91517299	      4.16507165	      2.62075731	     -9.93351799	     16.50648719	    -25.02926361	     -6.82355067	    -17.66229122	     -1.29936612	     18.29924484	     -4.47210606	      0.00000000	      0.00000000	      0.00000000	      0.00000000	     -0.00302801	      0.00000000	      9.84437270	     -7.15485930	      0.06795746	     -2.72397834
      0.65833333	     -4.26693495	     -1.77461781	      7.34734004	     -0.03869608	      0.97098839	      0.27182857	     31.97563424	      4.34292138	      2.67407599	    -10.77126538	     16.18357013	    -25.17919443	     -6.70347152	    -18.07482320	     -1.36939040	     18.22410697	     -4.69600968	      0.00000000	      0.00000000	      0.00000000	      0.00000000	     -0.00282730	      0.00000000	      9.83960935	     -7.21019922	      0.25646147	     -2.79685312
      0.66250000	     -3.98731251	     -1.86249878	      7.34371752	     -0.03216865	      0.97034374	      0.27162426	     31.90799362	      4.58638731	      2.65103100	    -11.64853378	     15.52399243	    -25.47717349	     -6.04396816	    -18.67658380	     -1.48762322	     18.03286962	     -4.85658595	      0.00000000	      0.00000000	      0.00000000	      0.00000000	     -0.00263906	      0.00000000	      9.83384328	     -7.42576075	      0.50027511	     -2.85629812
      0.66666667	     -3.93418060	     -1.92621789	      7.46580172	     -0.02582853	      0.96960689	      0.27120191	     31.92906999	      4.72567813	      2.88160975	    -12.26594607	     15.28838472	    -25.47539036	     -5.95300914	    -18.89666190	     -1.56119327	     18.13631372	     -5.24957862	      0.00000000	      0.00000000	      0.00000000	      0.00000000	     -0.00246900	      0.00000000	      9.75628489	     -7.41151475	      0.73694806	     -2.85303705
      0.67083333	     -3.84041317	     -2.01205119	      7.50617148	     -0.01952317	      0.96877030	      0.27092292	     32.04548736	      4.92379014	      2.99119315	    -13.13505362	     14.89192849	    -25.52947655	     -5.84831175	    -19.19512181	     -1.64698259	     18.14145355	     -5.59183298	      0.00000000	      0.00000000	      0.00000000	      0.00000000	     -0.00250250	      0.00000000	      9.69415584	     -7.44461256	      0.98005699	     -2.88617656
      0.67500000	     -3.50689114	     -2.07819690	      7.52835028	     -0.01275440	      0.96828827	      0.27044761	     31.95844410	      5.02783426	      2.37586106	    -14.00638796	     11.79289949	    -26.66408859	      4.10234530	    -19.81495674	     -1.72045851	     17.92988023	     -5.84734697	      0.00000000	      0.00000000	      0.00000000	      0.00000000	     -0.00221592	      0.00000000	      9.60136622	     -7.67563879	      1.24631024	     -2.95715152
      0.67916667	     -3.42155551	     -2.16545684	      7.55017647	     -0.00634411	      0.96760721	      0.27019262	     32.05452067	      5.21977443	      2.43622495	    -14.85432959	     11.44357567	    -26.63772544	      4.08113691	    -20.06858079	     -1.79341415	     17.89379413	     -6.24491365	      0.00000000	      0.00000000	      0.00000000	      0.00000000	     -0.00211217	      0.00000000	      9.49537593	     -7.68112937	      1.48749675	     -2.98143825
      0.68333333	     -3.28792684	     -2.28048492	      7.51230924	      0.00024597	      0.96699849	      0.26995257	     32.14541352	      5.44681446	      2.31517356	    -15.79135113	     10.93239973	    -26.61083952	      4.16268831	    -20.38995715	     -1.86895816	     17.69757495	     -6.63946521	      0.00000000	      0.00000000	      0.00000000	      0.00000000	     -0.00199479	      0.00000000	      9.35411958	     -7.70707093	      1.76779808	     -2.97289535
      0.68750000	     -3.16405602	     -2.39760801	      7.47770528	      0.00674838	      0.96646046	      0.26973944	     32.21942214	      5.67497621	      2.26589390	    -16.68939149	     10.48144053	    -26.57965277	      4.26640956	    -20.66150302	     -1.94498437	     17.56939526	     -7.09058859	      0.00000000	      0.00000000	      0.00000000	      0.00000000	     -0.00190052	      0.00000000	      9.19079014	     -7.73286562	      2.05172418	     -2.96285090
      0.69166667	     -2.83287079	     -2.50971755	      7.48870123	      0.01328819	      0.96628924	      0.26931897	     32.06867544	      5.83208836	      1.91748479	    -17.53661950	      9.29417410	    -26.58104159	      8.11075556	    -21.13544800	     -2.03857869	     17.44348464	     -7.56449995	      0.00000000	      0.00000000	      0.00000000	      0.00000000	     -0.00172774	      0.00000000	      8.99777615	     -8.00532875	      2.36294049	     -2.91189766
      0.69583333	     -2.75656511	     -2.63906109	      7.41371493	      0.01983617	      0.96581718	      0.26919975	     32.18166407	      6.07237444	      1.85931303	    -18.43179088	      8.90737057	    -26.55496938	      8.09952023	    -21.30730030	     -2.09864315	     17.29882255	     -8.10552750	      0.00000000	      0.00000000	      0.00000000	      0.00000000	     -0.00162784	      0.00000000	      8.78618691	     -7.98376560	      2.65082363	     -2.90598485
      0.70000000	     -2.64507017	     -2.79008414	      7.34921047	      0.02640927	      0.96548165	      0.26895261	     32.23595428	      6.31049332	      1.77568758	    -19.29538363	      8.50290469	    -26.46974933	      8.15160320	    -21.48548300	     -2.17181341	     17.09391945	     -8.69034606	      0.00000000	      0.00000000	      0.00000000	      0.00000000	     -0.00152914	      0.00000000	      8.54369212	     -7.97324479	      2.96535757	     -2.85261158
      0.70416667	     -2.51281331	     -2.95047035	      7.26479234	      0.03301623	      0.96526008	      0.26873558	     32.24780423	      6.56008332	      1.67179384	    -20.13334068	      8.12598240	    -26.34087756	      8.27501737	    -21.66316156	     -2.24590304	     16.87399250	     -9.31739704	      0.00000000	      0.00000000	      0.00000000	      0.00000000	     -0.00139785	      0.00000000	      8.27894013	     -7.99291206	      3.29335722	     -2.77006653
      0.70833333	     -2.36303829	     -3.11991922	      7.14776312	      0.03964573	      0.96512836	      0.26854118	     32.23706642	      6.82167736	      1.53707834	    -20.97563202	      7.77779613	    -26.17630811	      8.44906804	    -21.83653028	     -2.31225846	     16.63067399	     -9.98592250	      0.00000000	      0.00000000	      0.00000000	      0.00000000	     -0.00124294	      0.00000000	      7.99251493	     -8.04001756	      3.62461464	     -2.67812338
      0.71250000	     -2.25602605	     -3.24403176	      7.13030976	      0.04612056	      0.96518224	      0.26830377	     32.15494948	      7.01669415	      1.59667158	    -21.61050366	      7.60195550	    -26.08483443	      8.51276244	    -21.86773231	     -2.35568679	     16.55159998	    -10.78980792	      0.00000000	      0.00000000	      0.00000000	      0.00000000	     -0.00101045	      0.00000000	      7.67581181	     -8.05781565	      3.90765898	     -2.62754890
      0.71666667	     -2.03868787	     -3.44660039	      6.92446503	      0.05288782	      0.96518531	      0.26815684	     32.11639203	      7.31289540	      1.29339175	    -22.55850796	      7.22878938	    -25.77370942	      8.79325599	    -22.09946473	     -2.42153477	     16.10894342	    -11.49276847	      0.00000000	      0.00000000	      0.00000000	      0.00000000	     -0.00084306	      0.00000000	      7.35439435	     -8.15044908	      4.28874788	     -2.48118971
      0.72083333	     -1.55889810	     -3.61172635	      6.80881906	      0.05956304	      0.96573415	      0.26772427	     31.74197117	      7.48608868	      0.74102501	    -23.39766929	      7.21344335	    -24.55499648	     10.94198868	    -22.55640060	     -2.48427189	     15.79920252	    -12.26842515	      0.00000000	      0.00000000	      0.00000000	      0.00000000	     -0.00050685	      0.00000000	      7.00439239	     -8.58694436	      4.65552137	     -2.09474312
      0.72500000	     -1.45905444	     -3.74072045	      6.68319396	      0.06627827	      0.96589117	      0.26753245	     31.68306084	      7.67545090	      0.63605291	    -24.13135249	      6.93524506	    -24.49259544	     11.07549228	    -22.53622390	     -2.47580959	     15.52056870	    -13.17504287	      0.00000000	      0.00000000	      0.00000000	      0.00000000	     -0.00017264	      0.00000000	      6.65521480	     -8.56899503	      4.94821400	     -2.12210656
      0.72916667	     -1.35511910	     -3.86331470	      6.63139417	      0.07278423	      0.96623225	      0.26728086	     31.52190324	      7.85305471	      0.66849128	    -24.66486323	      6.82954414	    -24.42186190	     11.13370830	    -22.44009735	     -2.48494441	     15.38245767	    -14.16687956	      0.00000000	      0.00000000	      0.00000000	      0.00000000	      0.00016449	      0.00000000	      6.27549241	     -8.56908949	      5.20977320	     -2.08561178
